<svg version="1.2" baseProfile="tiny-ps" xmlns="http://www.w3.org/2000/svg" viewBox="0 0 424 39" width="424" height="39">
	<title>logo-2-svg</title>
	<defs>
		<clipPath clipPathUnits="userSpaceOnUse" id="cp1">
			<path d="M0 0L271.71 0L271.71 38.57L0 38.57L0 0Z" />
		</clipPath>
		<clipPath clipPathUnits="userSpaceOnUse" id="cp2">
			<path d="M0 0L271.71 0L271.71 38.57L0 38.57L0 0Z" />
		</clipPath>
	</defs>
	<style>
		tspan { white-space:pre }
		.shp0 { fill: #000000 } 
		.shp1 { fill: #ffffff } 
		.shp2 { fill: #fd6b28 } 
		.shp3 { fill: #e7ceb7 } 
		.shp4 { fill: #9d2b2e } 
		.shp5 { fill: #115e67 } 
	</style>
	<path id="Layer" fill-rule="evenodd" class="shp0" d="M295.31 14.83C296.72 14.83 297.99 15.19 299.11 15.91C300.26 16.62 301.16 17.6 301.81 18.85C302.47 20.1 302.79 21.49 302.79 23.02C302.79 24.56 302.47 25.95 301.81 27.2C301.16 28.44 300.26 29.43 299.11 30.14C297.99 30.86 296.72 31.21 295.31 31.21C294.37 31.21 293.49 31.02 292.67 30.63C291.87 30.24 291.18 29.7 290.58 29.01L290.58 31L286.53 31L286.53 9.37L290.89 9.37L290.89 16.7C291.46 16.09 292.13 15.63 292.88 15.32C293.64 15 294.45 14.83 295.31 14.83ZM294.36 27.63C295.54 27.63 296.5 27.21 297.24 26.37C297.98 25.51 298.35 24.39 298.35 23.02C298.35 21.65 297.98 20.55 297.24 19.71C296.5 18.85 295.54 18.42 294.36 18.42C293.17 18.42 292.21 18.85 291.47 19.71C290.74 20.55 290.37 21.65 290.37 23.02C290.37 24.39 290.74 25.51 291.47 26.37C292.21 27.21 293.17 27.63 294.36 27.63ZM312.23 14.74C313.79 14.74 315.17 15.09 316.37 15.78C317.58 16.48 318.51 17.46 319.16 18.73C319.82 19.98 320.15 21.4 320.15 22.99C320.15 23.24 320.13 23.65 320.08 24.22L308.21 24.22C308.36 25.28 308.77 26.13 309.47 26.77C310.19 27.4 311.05 27.72 312.08 27.72C313.02 27.72 313.79 27.54 314.38 27.2C314.97 26.83 315.36 26.32 315.54 25.66L319.93 25.66C319.77 26.73 319.32 27.69 318.58 28.55C317.87 29.4 316.94 30.08 315.79 30.57C314.66 31.06 313.44 31.31 312.11 31.31C310.53 31.31 309.12 30.97 307.87 30.29C306.63 29.6 305.64 28.63 304.93 27.38C304.23 26.11 303.89 24.66 303.89 23.02C303.89 21.41 304.24 19.98 304.96 18.73C305.68 17.46 306.67 16.48 307.94 15.78C309.2 15.09 310.63 14.74 312.23 14.74ZM312.02 18.24C311.07 18.24 310.25 18.49 309.53 19C308.83 19.52 308.41 20.23 308.24 21.15L315.54 21.15C315.42 20.35 315.03 19.67 314.38 19.1C313.72 18.52 312.94 18.24 312.02 18.24ZM338.12 14.83C339.53 14.83 340.8 15.19 341.92 15.91C343.07 16.62 343.97 17.6 344.62 18.85C345.28 20.1 345.61 21.49 345.61 23.02C345.61 24.56 345.28 25.95 344.62 27.2C343.97 28.44 343.07 29.43 341.92 30.14C340.8 30.86 339.53 31.21 338.12 31.21C337.18 31.21 336.3 31.02 335.48 30.63C334.68 30.24 333.99 29.7 333.39 29.01L333.39 31L329.35 31L329.35 9.37L333.7 9.37L333.7 16.7C334.27 16.09 334.94 15.63 335.69 15.32C336.45 15 337.26 14.83 338.12 14.83ZM337.17 27.63C338.35 27.63 339.31 27.21 340.05 26.37C340.79 25.51 341.16 24.39 341.16 23.02C341.16 21.65 340.79 20.55 340.05 19.71C339.31 18.85 338.35 18.42 337.17 18.42C335.98 18.42 335.02 18.85 334.28 19.71C333.55 20.55 333.18 21.65 333.18 23.02C333.18 24.39 333.55 25.51 334.28 26.37C335.02 27.21 335.98 27.63 337.17 27.63ZM351.97 31L347.61 31L347.61 15.05L351.97 15.05L351.97 31ZM349.79 13.14C349.01 13.14 348.37 12.89 347.86 12.38C347.34 11.85 347.09 11.2 347.09 10.44C347.09 9.67 347.34 9.02 347.86 8.51C348.37 8 349.01 7.75 349.79 7.75C350.55 7.75 351.18 8 351.69 8.51C352.22 9.02 352.49 9.67 352.49 10.44C352.49 11.2 352.22 11.85 351.69 12.38C351.18 12.89 350.55 13.14 349.79 13.14ZM366.18 15.05L370.23 15.05L370.23 29.77C370.23 31.18 369.9 32.43 369.24 33.52C368.59 34.62 367.65 35.47 366.42 36.06C365.21 36.68 363.77 36.98 362.1 36.98C359.91 36.98 358.11 36.49 356.7 35.51C355.31 34.53 354.5 33.23 354.27 31.61L358.78 31.61C359.23 32.76 360.36 33.33 362.16 33.33C363.3 33.33 364.22 33.04 364.92 32.44C365.61 31.85 365.96 31.06 365.96 30.08L365.96 28.76C365.37 29.37 364.68 29.84 363.91 30.17C363.15 30.5 362.33 30.66 361.45 30.66C360.04 30.66 358.76 30.33 357.62 29.65C356.47 28.95 355.57 28 354.92 26.8C354.28 25.59 353.97 24.24 353.97 22.75C353.97 21.25 354.28 19.9 354.92 18.7C355.57 17.49 356.47 16.55 357.62 15.88C358.76 15.18 360.04 14.83 361.45 14.83C362.39 14.83 363.26 15.02 364.06 15.38C364.88 15.75 365.58 16.27 366.18 16.95L366.18 15.05ZM362.4 27.26C363.59 27.26 364.55 26.85 365.29 26.03C366.02 25.21 366.39 24.15 366.39 22.84C366.39 21.53 366.02 20.47 365.29 19.65C364.55 18.81 363.59 18.39 362.4 18.39C361.22 18.39 360.25 18.81 359.52 19.65C358.78 20.47 358.41 21.53 358.41 22.84C358.41 24.15 358.78 25.21 359.52 26.03C360.25 26.85 361.22 27.26 362.4 27.26ZM384.44 15.05L388.49 15.05L388.49 29.77C388.49 31.18 388.16 32.43 387.51 33.52C386.86 34.62 385.91 35.47 384.69 36.06C383.48 36.68 382.04 36.98 380.36 36.98C378.17 36.98 376.37 36.49 374.96 35.51C373.57 34.53 372.76 33.23 372.54 31.61L377.05 31.61C377.5 32.76 378.62 33.33 380.42 33.33C381.57 33.33 382.49 33.04 383.18 32.44C383.88 31.85 384.23 31.06 384.23 30.08L384.23 28.76C383.63 29.37 382.95 29.84 382.17 30.17C381.41 30.5 380.6 30.66 379.72 30.66C378.31 30.66 377.03 30.33 375.88 29.65C374.74 28.95 373.84 28 373.18 26.8C372.55 25.59 372.23 24.24 372.23 22.75C372.23 21.25 372.55 19.9 373.18 18.7C373.84 17.49 374.74 16.55 375.88 15.88C377.03 15.18 378.31 14.83 379.72 14.83C380.66 14.83 381.53 15.02 382.32 15.38C383.14 15.75 383.85 16.27 384.44 16.95L384.44 15.05ZM380.67 27.26C381.85 27.26 382.81 26.85 383.55 26.03C384.29 25.21 384.66 24.15 384.66 22.84C384.66 21.53 384.29 20.47 383.55 19.65C382.81 18.81 381.85 18.39 380.67 18.39C379.48 18.39 378.52 18.81 377.78 19.65C377.05 20.47 376.68 21.53 376.68 22.84C376.68 24.15 377.05 25.21 377.78 26.03C378.52 26.85 379.48 27.26 380.67 27.26ZM398.84 14.74C400.39 14.74 401.78 15.09 402.98 15.78C404.19 16.48 405.12 17.46 405.77 18.73C406.43 19.98 406.76 21.4 406.76 22.99C406.76 23.24 406.74 23.65 406.69 24.22L394.82 24.22C394.96 25.28 395.38 26.13 396.08 26.77C396.8 27.4 397.67 27.72 398.69 27.72C399.63 27.72 400.39 27.54 400.99 27.2C401.58 26.83 401.97 26.32 402.15 25.66L406.54 25.66C406.38 26.73 405.93 27.69 405.19 28.55C404.48 29.4 403.55 30.08 402.4 30.57C401.27 31.06 400.05 31.31 398.72 31.31C397.14 31.31 395.73 30.97 394.48 30.29C393.24 29.6 392.25 28.63 391.54 27.38C390.84 26.11 390.5 24.66 390.5 23.02C390.5 21.41 390.85 19.98 391.57 18.73C392.29 17.46 393.28 16.48 394.55 15.78C395.81 15.09 397.25 14.74 398.84 14.74ZM398.63 18.24C397.69 18.24 396.86 18.49 396.14 19C395.44 19.52 395.02 20.23 394.85 21.15L402.15 21.15C402.03 20.35 401.64 19.67 400.99 19.1C400.33 18.52 399.55 18.24 398.63 18.24ZM419.21 15.05L419.21 18.94L415.89 18.94C415.01 18.94 414.33 19.23 413.84 19.8C413.35 20.37 413.1 21.16 413.1 22.16L413.1 31L408.75 31L408.75 15.05L412.8 15.05L412.8 17.19C413.31 16.5 413.92 15.97 414.64 15.6C415.37 15.23 416.17 15.05 417.03 15.05L419.21 15.05Z" />
	<g id="Clip-Path" clip-path="url(#cp1)">
		<g id="Layer">
			<path id="Layer" class="shp1" d="M116.79 6.01L123.49 6.01L116.06 30.03L108.87 30.03L104.5 14.65L100.13 30.03L93.11 30.03L85.69 6.01L92.57 6.01L96.99 22.39L101.63 6.01L107.73 6.01L112.36 22.39" />
			<path id="Layer" fill-rule="evenodd" class="shp1" d="M148.21 19.82L130.62 19.82C131.03 23.04 133.28 25.08 136.33 25.08C139.15 25.08 140.93 23.93 141.47 21.99L147.99 21.99C147.26 26.84 142.38 30.49 136.38 30.49C129.32 30.49 124.17 25.55 124.17 18.02C124.17 10.63 129.36 5.54 136.56 5.54C144.21 5.54 149.08 11.55 148.21 19.82ZM130.64 15.2L141.47 15.2C141.16 12.95 139.12 10.81 136.24 10.81C133.59 10.81 131.13 12.33 130.64 15.2Z" />
			<path id="Layer" fill-rule="evenodd" class="shp1" d="M175.08 19.82L157.49 19.82C157.89 23.04 160.15 25.08 163.2 25.08C166.02 25.08 167.79 23.93 168.34 21.99L174.85 21.99C174.13 26.84 169.25 30.49 163.24 30.49C156.18 30.49 151.04 25.55 151.04 18.02C151.04 10.63 156.23 5.54 163.43 5.54C171.07 5.54 175.95 11.55 175.08 19.82ZM157.51 15.2L168.34 15.2C168.03 12.95 165.99 10.81 163.1 10.81C160.46 10.81 158 12.33 157.51 15.2Z" />
			<path id="Layer" class="shp1" d="M199.85 22.4C199.85 27.25 195.94 30.49 188.88 30.49C181.59 30.49 177.91 26.75 177.59 21.99L184.24 21.99C184.55 23.97 186.1 25.27 188.97 25.27C191.93 25.27 193.21 24.39 193.21 22.82C193.21 21.11 191.38 20.74 186.6 20.09C184.28 19.77 178.13 18.52 178.13 12.98C178.13 8.45 181.91 5.54 188.65 5.54C195.85 5.54 199.31 9.52 199.58 13.86L192.57 13.86C192.29 11.96 191.02 10.76 188.56 10.76C185.37 10.76 184.6 11.73 184.6 12.98C184.6 14.6 186.88 15.01 190.56 15.52C193.93 15.98 199.85 16.86 199.85 22.4Z" />
			<path id="Layer" class="shp1" d="M211.97 6.01L217.98 6.01L217.98 11.55L211.97 11.55L211.97 22.54C211.97 23.74 212.6 24.39 213.79 24.39L217.98 24.39L217.98 30.03L212.24 30.03C208.1 30.03 205.86 27.76 205.86 23.56L205.86 11.55L201.68 11.55L201.68 6.01L205.86 6.01L205.86 0L211.97 0" />
			<path id="Layer" fill-rule="evenodd" class="shp1" d="M271.71 18.02C271.71 25.08 266.98 30.35 260.6 30.35C258.01 30.35 255.75 29.32 254.04 27.53L254.04 38.57L247.58 38.57L247.58 6.01L253.59 6.01L253.59 9.01C255.34 6.91 257.77 5.68 260.6 5.68C266.98 5.68 271.71 10.95 271.71 18.02ZM265.11 18.02C265.11 14 262.7 11.23 259.19 11.23C255.68 11.23 253.27 14 253.27 18.02C253.27 22.03 255.68 24.81 259.19 24.81C262.7 24.81 265.11 22.03 265.11 18.02Z" />
			<path id="Layer" fill-rule="evenodd" class="shp1" d="M243.84 19.82L226.25 19.82C226.65 23.04 228.91 25.08 231.96 25.08C234.78 25.08 236.56 23.93 237.1 21.99L243.62 21.99C242.89 26.84 238.01 30.49 232 30.49C224.94 30.49 219.8 25.55 219.8 18.02C219.8 10.63 224.99 5.54 232.19 5.54C239.84 5.54 244.71 11.55 243.84 19.82ZM226.27 15.2L237.1 15.2C236.79 12.95 234.75 10.81 231.87 10.81C229.22 10.81 226.76 12.33 226.27 15.2Z" />
			<path id="Layer" class="shp1" d="M52.74 23.92L58.83 8.47C59.82 5.97 62.63 4.75 65.09 5.76C67.56 6.76 68.76 9.6 67.77 12.11L61.68 27.55C60.69 30.06 57.89 31.27 55.42 30.27C52.95 29.27 51.75 26.42 52.74 23.92Z" />
			<path id="Layer" class="shp1" d="M12.69 30.27C10.22 31.27 7.42 30.06 6.43 27.55L0.35 12.11C-0.64 9.6 0.56 6.76 3.03 5.76C5.5 4.76 8.3 5.97 9.29 8.48L15.37 23.92C16.36 26.42 15.16 29.27 12.69 30.27Z" />
			<path id="Layer" class="shp1" d="M47.6 30.27C45.13 31.27 42.32 30.06 41.34 27.55L35.25 12.11C34.26 9.6 35.46 6.76 37.93 5.76C40.4 4.75 43.2 5.97 44.19 8.47L50.28 23.92C51.26 26.42 50.07 29.27 47.6 30.27Z" />
			<path id="Layer" class="shp1" d="M17.83 23.92L23.93 8.47C24.92 5.97 27.72 4.75 30.19 5.76C32.66 6.76 33.86 9.6 32.87 12.11L26.78 27.55C25.79 30.06 22.98 31.27 20.51 30.27C18.05 29.27 16.84 26.42 17.83 23.92Z" />
			<g id="Clip-Path" clip-path="url(#cp2)">
				<g id="Layer">
					<path id="Layer" class="shp0" d="M116.79 6.01L123.49 6.01L116.06 30.03L108.87 30.03L104.5 14.65L100.13 30.03L93.11 30.03L85.69 6.01L92.57 6.01L96.99 22.39L101.63 6.01L107.73 6.01L112.36 22.39" />
					<path id="Layer" fill-rule="evenodd" class="shp0" d="M148.21 19.82L130.62 19.82C131.03 23.04 133.28 25.08 136.33 25.08C139.15 25.08 140.93 23.93 141.47 21.99L147.99 21.99C147.26 26.84 142.38 30.49 136.38 30.49C129.32 30.49 124.17 25.55 124.17 18.02C124.17 10.63 129.36 5.54 136.56 5.54C144.21 5.54 149.08 11.55 148.21 19.82ZM130.64 15.2L141.47 15.2C141.16 12.95 139.12 10.81 136.24 10.81C133.59 10.81 131.13 12.33 130.64 15.2Z" />
					<path id="Layer" fill-rule="evenodd" class="shp0" d="M175.08 19.82L157.49 19.82C157.89 23.04 160.15 25.08 163.2 25.08C166.02 25.08 167.79 23.93 168.34 21.99L174.85 21.99C174.13 26.84 169.25 30.49 163.24 30.49C156.18 30.49 151.04 25.55 151.04 18.02C151.04 10.63 156.23 5.54 163.43 5.54C171.07 5.54 175.95 11.55 175.08 19.82ZM157.51 15.2L168.34 15.2C168.03 12.95 165.99 10.81 163.1 10.81C160.46 10.81 158 12.33 157.51 15.2Z" />
					<path id="Layer" class="shp0" d="M199.85 22.4C199.85 27.25 195.94 30.49 188.88 30.49C181.59 30.49 177.91 26.75 177.59 21.99L184.24 21.99C184.55 23.97 186.1 25.27 188.97 25.27C191.93 25.27 193.21 24.39 193.21 22.82C193.21 21.11 191.38 20.74 186.6 20.09C184.28 19.77 178.13 18.52 178.13 12.98C178.13 8.45 181.91 5.54 188.65 5.54C195.85 5.54 199.31 9.52 199.58 13.86L192.57 13.86C192.29 11.96 191.02 10.76 188.56 10.76C185.37 10.76 184.6 11.73 184.6 12.98C184.6 14.6 186.88 15.01 190.56 15.52C193.93 15.98 199.85 16.86 199.85 22.4Z" />
					<path id="Layer" class="shp0" d="M211.97 6.01L217.98 6.01L217.98 11.55L211.97 11.55L211.97 22.54C211.97 23.74 212.6 24.39 213.79 24.39L217.98 24.39L217.98 30.03L212.24 30.03C208.1 30.03 205.86 27.76 205.86 23.56L205.86 11.55L201.68 11.55L201.68 6.01L205.86 6.01L205.86 0L211.97 0" />
					<path id="Layer" fill-rule="evenodd" class="shp0" d="M271.71 18.02C271.71 25.08 266.98 30.35 260.6 30.35C258.01 30.35 255.75 29.32 254.04 27.53L254.04 38.57L247.58 38.57L247.58 6.01L253.59 6.01L253.59 9.01C255.34 6.91 257.77 5.68 260.6 5.68C266.98 5.68 271.71 10.95 271.71 18.02ZM265.11 18.02C265.11 14 262.7 11.23 259.19 11.23C255.68 11.23 253.27 14 253.27 18.02C253.27 22.03 255.68 24.81 259.19 24.81C262.7 24.81 265.11 22.03 265.11 18.02Z" />
					<path id="Layer" fill-rule="evenodd" class="shp0" d="M243.84 19.82L226.25 19.82C226.65 23.04 228.91 25.08 231.96 25.08C234.78 25.08 236.56 23.93 237.1 21.99L243.62 21.99C242.89 26.84 238.01 30.49 232 30.49C224.94 30.49 219.8 25.55 219.8 18.02C219.8 10.63 224.99 5.54 232.19 5.54C239.84 5.54 244.71 11.55 243.84 19.82ZM226.27 15.2L237.1 15.2C236.79 12.95 234.75 10.81 231.87 10.81C229.22 10.81 226.76 12.33 226.27 15.2Z" />
					<path id="Layer" class="shp2" d="M52.74 23.92L58.83 8.47C59.82 5.97 62.63 4.75 65.09 5.76C67.56 6.76 68.76 9.6 67.77 12.11L61.68 27.55C60.69 30.06 57.89 31.27 55.42 30.27C52.95 29.27 51.75 26.42 52.74 23.92Z" />
					<path id="Layer" class="shp3" d="M12.69 30.27C10.22 31.27 7.42 30.06 6.43 27.55L0.35 12.11C-0.64 9.6 0.56 6.76 3.03 5.76C5.5 4.76 8.3 5.97 9.29 8.48L15.37 23.92C16.36 26.42 15.16 29.27 12.69 30.27Z" />
					<path id="Layer" class="shp4" d="M47.6 30.27C45.13 31.27 42.32 30.06 41.34 27.55L35.25 12.11C34.26 9.6 35.46 6.76 37.93 5.76C40.4 4.75 43.2 5.97 44.19 8.47L50.28 23.92C51.26 26.42 50.07 29.27 47.6 30.27Z" />
					<path id="Layer" class="shp5" d="M17.83 23.92L23.93 8.47C24.92 5.97 27.72 4.75 30.19 5.76C32.66 6.76 33.86 9.6 32.87 12.11L26.78 27.55C25.79 30.06 22.98 31.27 20.51 30.27C18.05 29.27 16.84 26.42 17.83 23.92Z" />
				</g>
			</g>
		</g>
	</g>
</svg>